<?xml version="1.0" standalone="no"?>
<!DOCTYPE svg PUBLIC "-//W3C//DTD SVG 20010904//EN"
 "http://www.w3.org/TR/2001/REC-SVG-20010904/DTD/svg10.dtd">
<svg version="1.0" xmlns="http://www.w3.org/2000/svg"
 width="16.000000pt" height="16.000000pt" viewBox="0 0 16.000000 16.000000"
 preserveAspectRatio="xMidYMid meet">
<metadata>
Created by potrace 1.11, written by Peter Selinger 2001-2013
</metadata>
<g transform="translate(0.000000,16.000000) scale(0.004000,-0.004000)"
fill="#000000" stroke="none">
<path d="M0 2000 l0 -2000 2000 0 2000 0 0 2000 0 2000 -2000 0 -2000 0 0
-2000z m1750 1375 l0 -125 250 0 250 0 0 125 0 125 500 0 500 0 0 -250 0 -250
-500 0 -500 0 0 -375 0 -375 250 0 250 0 0 -250 0 -250 -250 0 -250 0 0 -375
0 -375 500 0 500 0 0 -250 0 -250 -500 0 -500 0 0 125 0 125 -250 0 -250 0 0
-125 0 -125 -500 0 -500 0 0 250 0 250 500 0 500 0 0 375 0 375 -250 0 -250 0
0 250 0 250 250 0 250 0 0 375 0 375 -500 0 -500 0 0 250 0 250 500 0 500 0 0
-125z"/>
</g>
</svg>
